<svg xmlns="http://www.w3.org/2000/svg" viewBox="0 0 18 18">
  <defs>
    <style>
      .cls-1 {
        fill: none;
      }

      .cls-2 {
        fill: #2d69ad;
      }

      .cls-3 {
        fill: #1b3359;
      }

      .cls-4 {
        fill: #ffa918;
      }

      .cls-5 {
        fill: #e0f4ff;
      }

      .cls-6 {
        fill: #4fd9e0;
      }

      .cls-7 {
        fill: #fc7718;
      }

      .cls-8 {
        fill: #b7e3ff;
      }

      .cls-9 {
        fill: #16a9c7;
      }
    </style>
  </defs>
  <g id="bed" transform="translate(-7649 197)">
    <rect id="Rectangle_312" data-name="Rectangle 312" class="cls-1" width="18" height="18" transform="translate(7649 -197)"/>
    <g id="bed-2" data-name="bed" transform="translate(7652 -192.5)">
      <path id="Path_697" data-name="Path 697" class="cls-2" d="M47.86,367.959a.356.356,0,0,1-.356-.356v-1a.356.356,0,0,1,.712,0v1A.356.356,0,0,1,47.86,367.959Z" transform="translate(-46.391 -359.371)"/>
      <path id="Path_698" data-name="Path 698" class="cls-3" d="M434.452,367.959a.356.356,0,0,1-.356-.356v-1a.356.356,0,1,1,.712,0v1A.356.356,0,0,1,434.452,367.959Z" transform="translate(-423.922 -359.371)"/>
      <path id="Path_699" data-name="Path 699" class="cls-4" d="M56.209,72.807H48.572A1.07,1.07,0,0,0,47.5,73.875v2.973a.356.356,0,0,0,.356.356h9.061a.356.356,0,0,0,.356-.356V73.875A1.07,1.07,0,0,0,56.209,72.807Z" transform="translate(-46.391 -72.807)"/>
      <path id="Path_700" data-name="Path 700" class="cls-5" d="M119.07,151.433h-1.44a1.123,1.123,0,0,0-.771.306,1.123,1.123,0,0,0-.771-.306h-1.44a1.129,1.129,0,0,0-1.128,1.128v1.071a.356.356,0,0,0,.356.356h5.966a.356.356,0,0,0,.356-.356v-1.071A1.129,1.129,0,0,0,119.07,151.433Z" transform="translate(-110.858 -149.59)"/>
      <path id="Path_701" data-name="Path 701" class="cls-6" d="M10.482,230.06H1.518A1.519,1.519,0,0,0,0,231.578v2.03a.356.356,0,0,0,.356.356H11.644a.356.356,0,0,0,.356-.356v-2.03A1.519,1.519,0,0,0,10.482,230.06Z" transform="translate(0 -226.374)"/>
      <path id="Path_702" data-name="Path 702" class="cls-7" d="M259.815,72.807H256v4.4h4.53a.356.356,0,0,0,.356-.356V73.875A1.07,1.07,0,0,0,259.815,72.807Z" transform="translate(-249.997 -72.807)"/>
      <path id="Path_703" data-name="Path 703" class="cls-8" d="M258.209,151.433h-1.44a1.123,1.123,0,0,0-.771.306h0v2.249h2.983a.356.356,0,0,0,.356-.356v-1.071A1.129,1.129,0,0,0,258.209,151.433Z" transform="translate(-249.997 -149.59)"/>
      <path id="Path_704" data-name="Path 704" class="cls-9" d="M260.479,230.06H256v3.9h5.644a.356.356,0,0,0,.356-.356v-2.03A1.519,1.519,0,0,0,260.479,230.06Z" transform="translate(-249.997 -226.374)"/>
    </g>
  </g>
</svg>
