<svg xmlns="http://www.w3.org/2000/svg" viewBox="0 0 48 48">
  <defs>
    <style>
      .cls-1 {
        fill: none;
      }

      .cls-2 {
        fill: #fdcc9b;
      }

      .cls-3 {
        fill: #fcbc85;
      }

      .cls-4 {
        fill: #3b2519;
      }

      .cls-5 {
        fill: #fff;
      }

      .cls-6 {
        fill: #51362a;
      }

      .cls-7 {
        fill: #f7945e;
      }

      .cls-8 {
        fill: #f7941e;
      }

      .cls-9 {
        fill: #f36c21;
      }
    </style>
  </defs>
  <g id="boy" transform="translate(-1047 -548)">
    <rect id="Rectangle_315" data-name="Rectangle 315" class="cls-1" width="48" height="48" transform="translate(1047 548)"/>
    <g id="boy-2" data-name="boy" transform="translate(1032.179 555.999)">
      <g id="Group_787" data-name="Group 787" transform="translate(27.821 3.899)">
        <rect id="Rectangle_383" data-name="Rectangle 383" class="cls-2" width="4.739" height="5.307" transform="translate(9.145 19.998)"/>
        <path id="Path_835" data-name="Path 835" class="cls-3" d="M84.551,148.855a7.951,7.951,0,0,0,4.739.975v-1.6H84.551Z" transform="translate(-75.405 -128.232)"/>
        <ellipse id="Ellipse_88" data-name="Ellipse 88" class="cls-3" cx="2.312" cy="2.638" rx="2.312" ry="2.638" transform="translate(0 9.13)"/>
        <ellipse id="Ellipse_89" data-name="Ellipse 89" class="cls-3" cx="2.312" cy="2.638" rx="2.312" ry="2.638" transform="translate(18.405 9.13)"/>
        <path id="Path_836" data-name="Path 836" class="cls-2" d="M60.56,30.913c0-3.886-2.843-6.729-9.193-6.729s-9.193,2.843-9.193,6.729-.663,14.122,9.193,14.122S60.56,34.8,60.56,30.913Z" transform="translate(-39.852 -24.184)"/>
        <g id="Group_786" data-name="Group 786" transform="translate(5.348 7.132)">
          <g id="Group_784" data-name="Group 784" transform="translate(0.694 2.914)">
            <ellipse id="Ellipse_90" data-name="Ellipse 90" class="cls-4" cx="0.995" cy="1.09" rx="0.995" ry="1.09"/>
            <circle id="Ellipse_91" data-name="Ellipse 91" class="cls-5" cx="0.298" cy="0.298" r="0.298" transform="translate(0.264 0.311)"/>
          </g>
          <path id="Path_837" data-name="Path 837" class="cls-6" d="M61.092,69.727c.471.235,1.226-.8,2.956.1.315.164.5-1.4-1.35-1.4C61.092,68.424,60.807,69.585,61.092,69.727Z" transform="translate(-60.995 -68.424)"/>
          <g id="Group_785" data-name="Group 785" transform="translate(9.772 2.914)">
            <ellipse id="Ellipse_92" data-name="Ellipse 92" class="cls-4" cx="0.995" cy="1.09" rx="0.995" ry="1.09"/>
            <circle id="Ellipse_93" data-name="Ellipse 93" class="cls-5" cx="0.298" cy="0.298" r="0.298" transform="translate(0.264 0.311)"/>
          </g>
          <path id="Path_838" data-name="Path 838" class="cls-6" d="M120.467,69.727c-.471.235-1.226-.8-2.956.1-.315.164-.5-1.4,1.351-1.4C120.467,68.424,120.751,69.585,120.467,69.727Z" transform="translate(-108.23 -68.424)"/>
        </g>
        <path id="Path_839" data-name="Path 839" class="cls-3" d="M91.05,114.565c-.983,0-1.576-.734-1.576-.379s.284,1.031,1.576,1.031,1.576-.675,1.576-1.031S92.033,114.565,91.05,114.565Z" transform="translate(-79.535 -99.595)"/>
        <path id="Path_840" data-name="Path 840" class="cls-3" d="M96.412,136.456c-.34,0-.545-.254-.545-.131s.1.356.545.356.545-.233.545-.356S96.752,136.456,96.412,136.456Z" transform="translate(-84.897 -118.218)"/>
        <path id="Path_841" data-name="Path 841" class="cls-7" d="M86.253,129.095a12.857,12.857,0,0,1-2.5-.474c0,.161.451.794,2.5.794s2.5-.633,2.5-.794A12.861,12.861,0,0,1,86.253,129.095Z" transform="translate(-74.738 -111.763)"/>
      </g>
      <path id="Path_842" data-name="Path 842" class="cls-8" d="M39.336,161.458v5.971H27.821C27.821,165.012,33.886,161.458,39.336,161.458Z" transform="translate(0 -135.428)"/>
      <path id="Path_843" data-name="Path 843" class="cls-8" d="M99.248,161.458v5.971h11.515C110.763,165.012,104.7,161.458,99.248,161.458Z" transform="translate(-59.912 -135.428)"/>
      <path id="Path_844" data-name="Path 844" class="cls-9" d="M81.056,161.458a15.081,15.081,0,0,0-3.5.439,4.684,4.684,0,0,0,3.5,1.647,5.2,5.2,0,0,0,3.621-1.617A15.158,15.158,0,0,0,81.056,161.458Z" transform="translate(-41.72 -135.428)"/>
      <path id="Path_845" data-name="Path 845" class="cls-2" d="M84.55,160.671a3.7,3.7,0,0,0,4.739,0A7.492,7.492,0,0,0,84.55,160.671Z" transform="translate(-47.584 -134.434)"/>
      <path id="Path_846" data-name="Path 846" class="cls-6" d="M52.746,3.07s-3.412-4.336-10.5-2.7-7.623,5.9-7.409,10.049S35.615,17,36.288,16.7s.323-3.04.394-3.672.711-3.491,5.024-3.064a17.841,17.841,0,0,0,7.947-1.137,8.936,8.936,0,0,0,2.426,2.2c1.924.708,1.293,5.428,2.047,5.428S58.575,5.558,52.746,3.07Z" transform="translate(-5.852 0)"/>
    </g>
  </g>
</svg>
