<svg xmlns="http://www.w3.org/2000/svg" viewBox="0 0 48 48">
  <defs>
    <style>
      .cls-1 {
        fill: none;
      }

      .cls-2 {
        fill: #c9c6ca;
      }

      .cls-3 {
        fill: #6e4b53;
      }

      .cls-4 {
        fill: #5c414b;
      }

      .cls-5 {
        fill: #e6af78;
      }

      .cls-6 {
        fill: #d29b6e;
      }

      .cls-7 {
        fill: #f0c087;
      }

      .cls-8 {
        fill: #dbd9dc;
      }

      .cls-9 {
        fill: #825a5a;
      }
    </style>
  </defs>
  <g id="business-man" transform="translate(-15373 4568)">
    <rect id="Rectangle_395" data-name="Rectangle 395" class="cls-1" width="48" height="48" transform="translate(15373 -4568)"/>
    <g id="employee_1_" data-name="employee (1)" transform="translate(15356.293 -4562)">
      <path id="Path_922" data-name="Path 922" class="cls-2" d="M45.1,252.08l-3.309-1.3H30.046l-3.309,1.3a3.2,3.2,0,0,0-2.028,3.109l.4,10.029a1.068,1.068,0,0,0,1.067,1.025h19.48a1.068,1.068,0,0,0,1.067-1.025l.4-10.029A3.2,3.2,0,0,0,45.1,252.08Z" transform="translate(0 -233.145)"/>
      <path id="Path_923" data-name="Path 923" class="cls-3" d="M164.034,303.684l-.683,11.744h2.925l-.683-11.744Z" transform="translate(-128.895 -282.331)"/>
      <path id="Path_924" data-name="Path 924" class="cls-4" d="M170.522,283.043h-.974a.581.581,0,0,1-.581-.581v-1.555H171.1v1.555A.581.581,0,0,1,170.522,283.043Z" transform="translate(-134.117 -261.156)"/>
      <rect id="Rectangle_402" data-name="Rectangle 402" class="cls-5" width="7.474" height="6.406" transform="translate(32.182 13.346)"/>
      <path id="Path_925" data-name="Path 925" class="cls-6" d="M131.006,191.8a6.377,6.377,0,0,0,7.474,0V189.8h-7.474Z" transform="translate(-98.825 -176.457)"/>
      <path id="Path_926" data-name="Path 926" class="cls-3" d="M99.452.017a6.905,6.905,0,0,0-4.182,1.6s-2.224,0-2.224,2.669a19.943,19.943,0,0,0,.534,4.254h12.278C106.925,2.669,104.39-.25,99.452.017Z" transform="translate(-63.534 0)"/>
      <path id="Path_927" data-name="Path 927" class="cls-4" d="M96.248,27.735a4.8,4.8,0,0,1-.979-4.72s-2.224,0-2.224,2.669a19.943,19.943,0,0,0,.534,4.254h2.669v-2.2Z" transform="translate(-63.533 -21.397)"/>
      <path id="Path_928" data-name="Path 928" class="cls-7" d="M98.265,85.037h-.534l-.7-1.284a.537.537,0,0,0-.57-.265,11.145,11.145,0,0,1-6.7-.583.525.525,0,0,0-.65.169,11.277,11.277,0,0,1-1.494,1.678,1.069,1.069,0,0,1-.726.284H86.5a1.042,1.042,0,0,0-.179.019,1.129,1.129,0,0,0-.87,1.126v.387a1.121,1.121,0,0,0,.824,1.108,1.057,1.057,0,0,0,.325.025.52.52,0,0,1,.545.434,5.332,5.332,0,0,0,10.49,0,.519.519,0,0,1,.517-.431h.11a1.068,1.068,0,0,0,1.068-1.068V86.1A1.068,1.068,0,0,0,98.265,85.037Z" transform="translate(-56.475 -77.029)"/>
      <path id="Path_929" data-name="Path 929" class="cls-5" d="M89.19,88.988V84.809a.508.508,0,0,0-.083.081,11.278,11.278,0,0,1-1.494,1.678,1.069,1.069,0,0,1-.726.284H86.5a1.042,1.042,0,0,0-.179.019A1.129,1.129,0,0,0,85.453,88v.387a1.121,1.121,0,0,0,.824,1.108,1.057,1.057,0,0,0,.325.025.52.52,0,0,1,.545.434,5.318,5.318,0,0,0,6.3,4.265A5.34,5.34,0,0,1,89.19,88.988Z" transform="translate(-56.475 -78.846)"/>
      <g id="Group_804" data-name="Group 804" transform="translate(24.707 16.228)">
        <path id="Path_930" data-name="Path 930" class="cls-8" d="M106.51,234.34l-3.895-3.408a.534.534,0,0,0-.729.024l-1.248,1.248,2.481,3.721a1.068,1.068,0,0,0,1.643.163Z" transform="translate(-95.299 -230.801)"/>
        <path id="Path_931" data-name="Path 931" class="cls-8" d="M184.151,234.34l3.895-3.408a.534.534,0,0,1,.729.024l1.248,1.248-2.481,3.721a1.068,1.068,0,0,1-1.643.163Z" transform="translate(-172.94 -230.801)"/>
        <path id="Path_932" data-name="Path 932" class="cls-8" d="M27.506,290.24l-2.322-2.322a3.193,3.193,0,0,0-.474,1.8l.4,10.029a1.068,1.068,0,0,0,1.067,1.025h2.266v-8.265A3.2,3.2,0,0,0,27.506,290.24Z" transform="translate(-24.707 -283.902)"/>
      </g>
      <g id="Group_805" data-name="Group 805" transform="translate(40.394 19.742)">
        <path id="Path_933" data-name="Path 933" class="cls-3" d="M315.034,282.516a.581.581,0,0,1,.581-.581H319.1a.581.581,0,0,1,.581.581v2.323h1.161v-2.323a1.744,1.744,0,0,0-1.742-1.742h-3.484a1.744,1.744,0,0,0-1.742,1.742v2.323h1.161Z" transform="translate(-309.228 -280.774)"/>
        <path id="Path_934" data-name="Path 934" class="cls-3" d="M247.809,371.613V379.8a1.683,1.683,0,0,0,1.683,1.683h12.892a1.683,1.683,0,0,0,1.683-1.683v-8.188Z" transform="translate(-247.809 -365.226)"/>
      </g>
      <path id="Path_935" data-name="Path 935" class="cls-9" d="M248.261,337.871a17.373,17.373,0,0,0,2.9-.239l2.322-.6c2.116-.765,3.484-1.983,3.484-3.355v-1.613a1.742,1.742,0,0,0-1.742-1.742H241.293a1.742,1.742,0,0,0-1.742,1.742v1.613c0,1.372,1.369,2.59,3.484,3.355l2.322.6A17.372,17.372,0,0,0,248.261,337.871Z" transform="translate(-199.738 -307.097)"/>
      <g id="Group_806" data-name="Group 806" transform="translate(43.297 29.033)">
        <path id="Path_936" data-name="Path 936" class="cls-2" d="M290.26,415.807h0a1.161,1.161,0,0,1-1.161-1.161v-1.161a.581.581,0,0,1,.581-.581h1.161a.581.581,0,0,1,.581.581v1.161A1.161,1.161,0,0,1,290.26,415.807Z" transform="translate(-289.099 -412.904)"/>
        <path id="Path_937" data-name="Path 937" class="cls-2" d="M405.873,415.807h0a1.161,1.161,0,0,1-1.161-1.161v-1.161a.581.581,0,0,1,.581-.581h1.161a.581.581,0,0,1,.581.581v1.161A1.161,1.161,0,0,1,405.873,415.807Z" transform="translate(-396.583 -412.904)"/>
      </g>
      <g id="Group_807" data-name="Group 807" transform="translate(43.878 30.194)">
        <circle id="Ellipse_108" data-name="Ellipse 108" class="cls-8" cx="0.581" cy="0.581" r="0.581" transform="translate(0)"/>
        <circle id="Ellipse_109" data-name="Ellipse 109" class="cls-8" cx="0.581" cy="0.581" r="0.581" transform="translate(8.129)"/>
      </g>
    </g>
  </g>
</svg>
