<svg xmlns="http://www.w3.org/2000/svg" viewBox="0 0 48 48">
  <defs>
    <style>
      .cls-1 {
        fill: none;
      }

      .cls-2 {
        fill: #5c414b;
      }

      .cls-3 {
        fill: #503441;
      }

      .cls-4 {
        fill: #e6af78;
      }

      .cls-5 {
        fill: #ffdc64;
      }

      .cls-6 {
        fill: #fff082;
      }

      .cls-7 {
        fill: #d29b6e;
      }

      .cls-8 {
        fill: #f0c087;
      }

      .cls-9 {
        fill: #c39772;
      }

      .cls-10 {
        fill: #dbd9dc;
      }

      .cls-11 {
        fill: #fff;
      }
    </style>
  </defs>
  <g id="business-woman" transform="translate(-15509 4568)">
    <rect id="Rectangle_395" data-name="Rectangle 395" class="cls-1" width="48" height="48" transform="translate(15509 -4568)"/>
    <g id="employee" transform="translate(15453.936 -4562)">
      <path id="Path_950" data-name="Path 950" class="cls-2" d="M150.37,9.871V7.761A7.689,7.689,0,0,0,143.187.008a7.549,7.549,0,0,0-7.913,7.54V9.871a21.264,21.264,0,0,1-.977,7.1.574.574,0,0,0,.272.7,26.421,26.421,0,0,0,7.092,2.654h2.323a26.426,26.426,0,0,0,7.092-2.654.574.574,0,0,0,.272-.7A21.264,21.264,0,0,1,150.37,9.871Z" transform="translate(-63.403 0)"/>
      <path id="Path_951" data-name="Path 951" class="cls-3" d="M135.277,30.776V33.1a21.265,21.265,0,0,1-.977,7.1.576.576,0,0,0,.275.7,27.969,27.969,0,0,0,6.508,2.539v-11.5l-1.161-1.161a7.152,7.152,0,0,1-1.935-5.792A7.53,7.53,0,0,0,135.277,30.776Z" transform="translate(-63.407 -23.228)"/>
      <rect id="Rectangle_406" data-name="Rectangle 406" class="cls-4" width="5.806" height="7.549" transform="translate(76.516 16.258)"/>
      <path id="Path_952" data-name="Path 952" class="cls-5" d="M127.025,290.407l-3.091-1.375-4.131,1.742-.678,1.017a.581.581,0,0,1-.966,0l-.678-1.017-4.068-1.742-3.091,1.375a3.484,3.484,0,0,0-2.067,3.28l.305,11.023h20.227l.305-11.023A3.484,3.484,0,0,0,127.025,290.407Z" transform="translate(-39.223 -268.71)"/>
      <g id="Group_812" data-name="Group 812" transform="translate(69.03 22.482)">
        <path id="Path_953" data-name="Path 953" class="cls-6" d="M112.138,323.4l-2.917-3.646a3.476,3.476,0,0,0-.967,2.494l.305,11.023h3.579Z" transform="translate(-108.253 -319.755)"/>
        <path id="Path_954" data-name="Path 954" class="cls-6" d="M349.388,323.4l2.917-3.646a3.475,3.475,0,0,1,.967,2.494l-.305,11.023h-3.579V323.4Z" transform="translate(-332.433 -319.755)"/>
      </g>
      <path id="Path_955" data-name="Path 955" class="cls-7" d="M214.709,232.912a6.944,6.944,0,0,0,5.806,0v-1.687h-5.806Z" transform="translate(-138.193 -214.967)"/>
      <path id="Path_956" data-name="Path 956" class="cls-8" d="M161.691,103.353a5.237,5.237,0,0,0,.247-1.453c.086-3.342-4.595-2.559-8.44-5.089a.585.585,0,0,0-.808.143,12.17,12.17,0,0,1-1.7,1.938,1.159,1.159,0,0,1-.787.307h-.419a1.135,1.135,0,0,0-.2.021,1.228,1.228,0,0,0-.945,1.226v.42a1.219,1.219,0,0,0,.9,1.206,1.151,1.151,0,0,0,.354.027.565.565,0,0,1,.593.472,5.8,5.8,0,0,0,11.062,1.167C161.59,103.636,161.683,103.378,161.691,103.353Z" transform="translate(-76.773 -89.909)"/>
      <path id="Path_957" data-name="Path 957" class="cls-4" d="M152.708,104.477v-4.59a12.193,12.193,0,0,1-1.718,1.96,1.159,1.159,0,0,1-.787.307h-.419a1.137,1.137,0,0,0-.195.021,1.228,1.228,0,0,0-.946,1.225v.421a1.22,1.22,0,0,0,.9,1.206,1.149,1.149,0,0,0,.354.027.566.566,0,0,1,.593.472,5.785,5.785,0,0,0,6.857,4.639A5.809,5.809,0,0,1,152.708,104.477Z" transform="translate(-76.773 -92.864)"/>
      <path id="Path_958" data-name="Path 958" class="cls-9" d="M92.193,496.644H66.645a.581.581,0,1,1,0-1.161H92.193a.581.581,0,1,1,0,1.161Z" transform="translate(0 -460.645)"/>
      <g id="Group_813" data-name="Group 813" transform="translate(74.193 19.105)">
        <path id="Path_959" data-name="Path 959" class="cls-6" d="M182.8,275.178l-1.12-2.239,1.262-1.078a.581.581,0,0,1,.849.1l1.954,2.717-1.209.907A1.161,1.161,0,0,1,182.8,275.178Z" transform="translate(-181.676 -271.722)"/>
        <path id="Path_960" data-name="Path 960" class="cls-6" d="M275.46,275.178l1.12-2.239-1.262-1.078a.581.581,0,0,0-.849.1l-1.954,2.717,1.209.907A1.161,1.161,0,0,0,275.46,275.178Z" transform="translate(-266.128 -271.722)"/>
      </g>
      <path id="Path_961" data-name="Path 961" class="cls-10" d="M155.9,364.967H142.99a1.161,1.161,0,0,1-1.159-1.093l-.444-7.548a1.161,1.161,0,0,1,1.159-1.229h13.795a1.161,1.161,0,0,1,1.159,1.229l-.444,7.548A1.161,1.161,0,0,1,155.9,364.967Z" transform="translate(-70.025 -330.129)"/>
      <circle id="Ellipse_112" data-name="Ellipse 112" class="cls-11" cx="1.452" cy="1.452" r="1.452" transform="translate(77.967 28.742)"/>
    </g>
  </g>
</svg>
