<svg xmlns="http://www.w3.org/2000/svg" viewBox="0 0 48 48">
  <defs>
    <style>
      .cls-1 {
        fill: none;
      }

      .cls-2 {
        fill: #d59f63;
      }

      .cls-3 {
        fill: #cd915a;
      }

      .cls-4 {
        fill: #fad7a5;
      }

      .cls-5 {
        fill: #f0c891;
      }

      .cls-6 {
        fill: #ffe1b4;
      }

      .cls-7 {
        fill: #fad098;
      }

      .cls-8 {
        fill: #d7af7d;
      }

      .cls-9 {
        fill: #64463c;
      }

      .cls-10 {
        fill: #ff507d;
      }

      .cls-11 {
        fill: #d23c69;
      }

      .cls-12 {
        fill: #b48764;
      }

      .cls-13 {
        fill: #966d50;
      }

      .cls-14 {
        fill: #00aaf0;
      }

      .cls-15 {
        fill: #0096dc;
      }

      .cls-16 {
        fill: #c39772;
      }

      .cls-17 {
        fill: #553732;
      }

      .cls-18 {
        fill: #e6af78;
      }

      .cls-19 {
        fill: #d29b6e;
      }

      .cls-20 {
        fill: #f0c087;
      }

      .cls-21 {
        fill: #ffdc64;
      }

      .cls-22 {
        fill: #ffc850;
      }
    </style>
  </defs>
  <g id="family-small" transform="translate(-1079 -681)">
    <g id="Group_844" data-name="Group 844" transform="translate(-11625 771)">
      <g id="Group_827" data-name="Group 827" transform="translate(-3213 4478)">
        <rect id="Rectangle_395" data-name="Rectangle 395" class="cls-1" width="48" height="48" transform="translate(15917 -4568)"/>
      </g>
    </g>
    <g id="family_2_" data-name="family (2)" transform="translate(1085 666.932)">
      <path id="Path_1031" data-name="Path 1031" class="cls-2" d="M289.932,57.379h0a6.828,6.828,0,0,1,6.828,6.828h0a70.421,70.421,0,0,0,.621,8.69,21.924,21.924,0,0,1-7.448,2.483,21.926,21.926,0,0,1-7.448-2.483,70.421,70.421,0,0,0,.621-8.69h0a6.827,6.827,0,0,1,6.827-6.828Z" transform="translate(-262.622 -32.828)"/>
      <path id="Path_1032" data-name="Path 1032" class="cls-3" d="M287.448,63.586V61.724a4.345,4.345,0,0,1,3.5-4.261,6.844,6.844,0,0,0-1.016-.084h0a6.828,6.828,0,0,0-6.828,6.828,70.421,70.421,0,0,1-.621,8.69,21.924,21.924,0,0,0,7.448,2.483v-9.31Z" transform="translate(-262.62 -32.828)"/>
      <path id="Path_1033" data-name="Path 1033" class="cls-4" d="M281.036,274.36l-4.256-1.7a1.241,1.241,0,0,1-.78-1.153v-2.263h-4.966v2.263a1.241,1.241,0,0,1-.78,1.153L266,274.36a1.862,1.862,0,0,0-1.171,1.729v2.463a.621.621,0,0,0,.621.621h0v5.586h15.517a.621.621,0,0,0,.621-.621v-4.966h0a.621.621,0,0,0,.621-.621v-2.463A1.862,1.862,0,0,0,281.036,274.36Z" transform="translate(-246.206 -229.795)"/>
      <g id="Group_852" data-name="Group 852" transform="translate(24.827 39.447)">
        <path id="Path_1034" data-name="Path 1034" class="cls-5" d="M462.137,401.655v1.862h-.621a.621.621,0,0,0-.621.621v3.724h-1.862v-6.207h3.1Z" transform="translate(-451.585 -392.345)"/>
        <path id="Path_1035" data-name="Path 1035" class="cls-5" d="M353.1,271.252a6.737,6.737,0,0,0,4.965,0v-2.009H353.1v2.009Z" transform="translate(-353.102 -269.243)"/>
      </g>
      <path id="Path_1036" data-name="Path 1036" class="cls-6" d="M314.552,150.786h0a5.586,5.586,0,0,1-5.586-5.586v-1.914a.618.618,0,0,1,.526-.609,3.2,3.2,0,0,0,2.4-1.966.366.366,0,0,1,.557-.145c2.63,1.984,7.686.5,7.686,4.633h0A5.586,5.586,0,0,1,314.552,150.786Z" transform="translate(-287.242 -110.097)"/>
      <path id="Path_1037" data-name="Path 1037" class="cls-7" d="M312.068,145.826v-4.66a.357.357,0,0,0-.174.172,3.2,3.2,0,0,1-2.4,1.966.618.618,0,0,0-.526.609v1.914a5.577,5.577,0,0,0,7.138,5.363A5.585,5.585,0,0,1,312.068,145.826Z" transform="translate(-287.241 -110.724)"/>
      <path id="Path_1038" data-name="Path 1038" class="cls-8" d="M363.792,226.967a2.226,2.226,0,0,1-1.723-.85.621.621,0,1,1,.964-.782.952.952,0,0,0,1.519,0,.621.621,0,1,1,.964.782A2.225,2.225,0,0,1,363.792,226.967Z" transform="translate(-336.482 -188.761)"/>
      <g id="Group_853" data-name="Group 853" transform="translate(24.207 33.24)">
        <path id="Path_1039" data-name="Path 1039" class="cls-9" d="M415.517,182.826a.621.621,0,0,1-.621-.621v-.621a.621.621,0,1,1,1.241,0v.621A.621.621,0,0,1,415.517,182.826Z" transform="translate(-409.93 -180.964)"/>
        <path id="Path_1040" data-name="Path 1040" class="cls-9" d="M344.9,182.826a.621.621,0,0,1-.621-.621v-.621a.621.621,0,1,1,1.241,0v.621A.62.62,0,0,1,344.9,182.826Z" transform="translate(-344.275 -180.964)"/>
      </g>
      <path id="Path_1041" data-name="Path 1041" class="cls-10" d="M281.037,328.028l-2.648-1.059a4.964,4.964,0,0,1-9.743,0L266,328.028a1.862,1.862,0,0,0-1.171,1.729v8.67H279.1v-5.586h2.483a.621.621,0,0,0,.621-.621v-2.463A1.862,1.862,0,0,0,281.037,328.028Z" transform="translate(-246.207 -283.463)"/>
      <g id="Group_854" data-name="Group 854" transform="translate(21.273 43.506)">
        <path id="Path_1042" data-name="Path 1042" class="cls-11" d="M313.464,326.969a4.964,4.964,0,0,1-9.743,0l-1.165.466a6.2,6.2,0,0,0,12.074,0Z" transform="translate(-302.556 -326.969)"/>
        <path id="Path_1043" data-name="Path 1043" class="cls-11" d="M467.862,356.041a1.241,1.241,0,0,1,.364-.878l2.457-2.457a1.856,1.856,0,0,1,.282.978v2.463a.621.621,0,0,1-.621.621h-2.483v-.727Z" transform="translate(-456.239 -350.896)"/>
      </g>
      <path id="Path_1044" data-name="Path 1044" class="cls-12" d="M12.551,383.241h-3.1a.621.621,0,0,1-.621-.621v-7.448h3.724Z" transform="translate(-8.206 -328.276)"/>
      <g id="Group_855" data-name="Group 855" transform="translate(0.621 46.896)">
        <path id="Path_1045" data-name="Path 1045" class="cls-13" d="M8.828,392.828v1.241h1.241a.621.621,0,0,1,.621.621v4.966h1.862v-6.828H8.828Z" transform="translate(-8.828 -391.586)"/>
        <rect id="Rectangle_408" data-name="Rectangle 408" class="cls-13" width="3.724" height="8.069" transform="translate(13.655 0)"/>
      </g>
      <path id="Path_1046" data-name="Path 1046" class="cls-14" d="M17.249,261.9l-5.455-1.488H6.828L1.372,261.9A1.862,1.862,0,0,0,0,263.7V269.1a.621.621,0,0,0,.621.621h3.1v6.828H14.9v-8.224h3.724V263.7A1.862,1.862,0,0,0,17.249,261.9Z" transform="translate(0 -221.586)"/>
      <path id="Path_1047" data-name="Path 1047" class="cls-15" d="M69.895,260.414H64.929l-2.433.664a4.96,4.96,0,0,0,9.832,0Z" transform="translate(-58.102 -221.587)"/>
      <path id="Path_1048" data-name="Path 1048" class="cls-12" d="M88.276,229.517v2.172a3.1,3.1,0,1,0,6.207,0v-2.172Z" transform="translate(-82.069 -192.863)"/>
      <path id="Path_1049" data-name="Path 1049" class="cls-13" d="M88.276,230.938a6.782,6.782,0,0,0,6.207,0v-1.421H88.276Z" transform="translate(-82.069 -192.863)"/>
      <path id="Path_1050" data-name="Path 1050" class="cls-16" d="M47.725,78.758V75.034H36.552v3.724a1.241,1.241,0,0,0,0,2.483,5.586,5.586,0,1,0,11.172,0,1.241,1.241,0,0,0,0-2.483Z" transform="translate(-32.828 -49.242)"/>
      <path id="Path_1051" data-name="Path 1051" class="cls-12" d="M39.656,81.241V75.034h-3.1v3.724a1.241,1.241,0,0,0,0,2.483A5.577,5.577,0,0,0,43.69,86.6,5.585,5.585,0,0,1,39.656,81.241Z" transform="translate(-32.828 -49.242)"/>
      <path id="Path_1052" data-name="Path 1052" class="cls-13" d="M107.792,182.831a2.226,2.226,0,0,1-1.723-.85.621.621,0,1,1,.964-.782.952.952,0,0,0,1.519,0,.621.621,0,1,1,.964.782A2.225,2.225,0,0,1,107.792,182.831Z" transform="translate(-98.482 -147.729)"/>
      <g id="Group_856" data-name="Group 856" transform="translate(6.207 30.137)">
        <path id="Path_1053" data-name="Path 1053" class="cls-17" d="M88.9,138.688a.621.621,0,0,1-.621-.621v-.621a.621.621,0,0,1,1.241,0v.621A.62.62,0,0,1,88.9,138.688Z" transform="translate(-88.275 -136.826)"/>
        <path id="Path_1054" data-name="Path 1054" class="cls-17" d="M159.517,138.688a.621.621,0,0,1-.621-.621v-.621a.621.621,0,0,1,1.241,0v.621A.621.621,0,0,1,159.517,138.688Z" transform="translate(-153.93 -136.826)"/>
      </g>
      <path id="Path_1055" data-name="Path 1055" class="cls-9" d="M54.523,28.926a1.045,1.045,0,0,0,1.2.609,1.2,1.2,0,0,1,.208-.018,1.229,1.229,0,0,1,.621.172v-3.9a2.472,2.472,0,0,0-1.271-2.154,1.858,1.858,0,0,0-1.833-1.57H48.483a4.345,4.345,0,0,0-4.345,4.345v3.276a1.228,1.228,0,0,1,.621-.172,1.2,1.2,0,0,1,.233.023,1.147,1.147,0,0,0,1.361-.812h0l.153-.611a.617.617,0,0,1,.582-.47,23.073,23.073,0,0,0,6.282-.937.62.62,0,0,1,.829.477l.232,1.394A1.817,1.817,0,0,0,54.523,28.926Z" transform="translate(-41.035)"/>
      <path id="Path_1056" data-name="Path 1056" class="cls-17" d="M47.862,25.792a3.724,3.724,0,0,1,3.724-3.724h-3.1a4.345,4.345,0,0,0-4.345,4.345v3.276a1.228,1.228,0,0,1,.621-.172,1.2,1.2,0,0,1,.233.023,1.147,1.147,0,0,0,1.361-.812l.153-.611a.617.617,0,0,1,.582-.47c.2-.005.469-.015.775-.031V25.792Z" transform="translate(-41.035)"/>
      <path id="Path_1057" data-name="Path 1057" class="cls-15" d="M0,290.684v5.405a.621.621,0,0,0,.621.621h3.1v-2.039a3.1,3.1,0,0,0-.654-1.905L.484,289.441A1.854,1.854,0,0,0,0,290.684Z" transform="translate(0 -248.573)"/>
      <path id="Path_1058" data-name="Path 1058" class="cls-18" d="M195.28,404.335l-2.026-.675a.621.621,0,0,1-.424-.589v-1.415h-3.724v1.415a.621.621,0,0,1-.424.589l-2.026.675a1.862,1.862,0,0,0-1.273,1.767v1.141a.621.621,0,0,0,.621.621h9.931a.621.621,0,0,0,.621-.621V406.1A1.862,1.862,0,0,0,195.28,404.335Z" transform="translate(-172.346 -352.898)"/>
      <path id="Path_1059" data-name="Path 1059" class="cls-19" d="M238.13,401.655v1.415a.606.606,0,0,1-.016.1,5.3,5.3,0,0,0,1.707.343l.171,0a5.547,5.547,0,0,0,1.88-.332.6.6,0,0,1-.018-.115v-1.415Z" transform="translate(-221.372 -352.897)"/>
      <path id="Path_1060" data-name="Path 1060" class="cls-9" d="M190.966,216.276h0a5.586,5.586,0,0,0-5.586,5.586v1.862h11.172v-1.862A5.586,5.586,0,0,0,190.966,216.276Z" transform="translate(-172.346 -180.553)"/>
      <path id="Path_1061" data-name="Path 1061" class="cls-17" d="M192.827,216.6a5.574,5.574,0,0,0-7.448,5.262v1.862H189.1v-1.862A5.584,5.584,0,0,1,192.827,216.6Z" transform="translate(-172.345 -180.553)"/>
      <path id="Path_1062" data-name="Path 1062" class="cls-20" d="M195.311,281.278v-.537a1.234,1.234,0,0,0-1.783-1.1,18.007,18.007,0,0,1-6.906,1.634,1.241,1.241,0,0,0,0,2.483v.438a4.466,4.466,0,0,0,4.211,4.525,4.345,4.345,0,0,0,4.478-4.343v-.621a1.241,1.241,0,0,0,0-2.483Z" transform="translate(-172.346 -239.348)"/>
      <path id="Path_1063" data-name="Path 1063" class="cls-21" d="M218.879,200.921l-3.292,1.411-3.292-1.411a.31.31,0,0,0-.433.285v2.783a.31.31,0,0,0,.433.285l3.292-1.411,3.292,1.411a.31.31,0,0,0,.433-.285v-2.783A.31.31,0,0,0,218.879,200.921Z" transform="translate(-196.966 -166.254)"/>
      <path id="Path_1064" data-name="Path 1064" class="cls-18" d="M189.1,304.226v-3.363a16.321,16.321,0,0,1-2.483.259,1.241,1.241,0,0,0,0,2.483v.438a4.466,4.466,0,0,0,4.211,4.525,4.348,4.348,0,0,0,1.375-.18A4.345,4.345,0,0,1,189.1,304.226Z" transform="translate(-172.346 -259.192)"/>
      <path id="Path_1065" data-name="Path 1065" class="cls-19" d="M240.206,359.383a2.226,2.226,0,0,1-1.723-.85.621.621,0,1,1,.964-.782.952.952,0,0,0,1.519,0,.621.621,0,1,1,.964.782A2.226,2.226,0,0,1,240.206,359.383Z" transform="translate(-221.586 -311.867)"/>
      <g id="Group_857" data-name="Group 857" transform="translate(16.138 43.179)">
        <path id="Path_1066" data-name="Path 1066" class="cls-17" d="M230.139,323.551a.615.615,0,1,1,.441-.18A.653.653,0,0,1,230.139,323.551Z" transform="translate(-229.518 -322.318)"/>
        <path id="Path_1067" data-name="Path 1067" class="cls-17" d="M283.1,323.551a.653.653,0,0,1-.441-.18.58.58,0,0,1-.13-.2.585.585,0,0,1,0-.472.577.577,0,0,1,.13-.2.65.65,0,0,1,.881,0,.636.636,0,0,1,.13.2.62.62,0,0,1,.05.236.615.615,0,0,1-.621.621Z" transform="translate(-278.759 -322.318)"/>
      </g>
      <path id="Path_1068" data-name="Path 1068" class="cls-21" d="M195.28,435.3l-1.012-.337a3.721,3.721,0,0,1-6.6,0l-1.012.337a1.862,1.862,0,0,0-1.273,1.767V438.2a.621.621,0,0,0,.621.621h9.931a.621.621,0,0,0,.621-.621v-1.141A1.862,1.862,0,0,0,195.28,435.3Z" transform="translate(-172.346 -383.86)"/>
      <circle id="Ellipse_119" data-name="Ellipse 119" class="cls-22" cx="0.931" cy="0.931" r="0.931" transform="translate(17.69 35.413)"/>
    </g>
  </g>
</svg>
