<svg xmlns="http://www.w3.org/2000/svg" viewBox="0 0 48 48">
  <defs>
    <style>
      .cls-1 {
        fill: none;
      }

      .cls-2 {
        fill: #efc75e;
      }

      .cls-3 {
        fill: #dcb757;
      }

      .cls-4 {
        fill: #c45b4b;
      }

      .cls-5 {
        fill: #d07c40;
      }

      .cls-6 {
        fill: #efc2b3;
      }

      .cls-7 {
        fill: #d7aea1;
      }

      .cls-8 {
        fill: #324d5b;
      }

      .cls-9 {
        fill: #f4b459;
      }
    </style>
  </defs>
  <g id="female" transform="translate(-15713 4568)">
    <rect id="Rectangle_395" data-name="Rectangle 395" class="cls-1" width="48" height="48" transform="translate(15713 -4568)"/>
    <g id="girl_1_" data-name="girl (1)" transform="translate(15682.658 -4562)">
      <path id="Path_972" data-name="Path 972" class="cls-2" d="M67.467,308.608a1.692,1.692,0,0,1-1.688,1.688H41.03a1.692,1.692,0,0,1-1.688-1.687v-4.7a8.534,8.534,0,0,1,8.522-8.522H58.945a8.534,8.534,0,0,1,8.522,8.522v4.7Z" transform="translate(0 -274.295)"/>
      <path id="Path_973" data-name="Path 973" class="cls-3" d="M41.564,289.31a8.745,8.745,0,0,1,8.719-8.8v-.872H48.089a8.786,8.786,0,0,0-8.747,8.8v7.228h2.25V289.31Z" transform="translate(0 -259.666)"/>
      <path id="Path_974" data-name="Path 974" class="cls-4" d="M291.15,389.011a.9.9,0,0,0,.731-.872.888.888,0,0,0-.9-.9.9.9,0,0,0-.675.309,1,1,0,0,0,.056-.281.889.889,0,0,0-.9-.9.906.906,0,0,0-.9.9.832.832,0,0,0,.056.281c-.169-.2-.2-.366-.422-.366-.45,0-1.125.45-1.125.956a.857.857,0,0,0,.731.872.9.9,0,0,0-.731.872.889.889,0,0,0,.9.9.9.9,0,0,0,.675-.309,1,1,0,0,0-.056.281.888.888,0,0,0,.9.9.906.906,0,0,0,.9-.9.832.832,0,0,0-.056-.281.856.856,0,0,0,.675.309.906.906,0,0,0,.9-.9A.956.956,0,0,0,291.15,389.011Zm-1.659.7a.7.7,0,1,1,.7-.7A.7.7,0,0,1,289.491,389.714Z" transform="translate(-230.039 -358.776)"/>
      <path id="Path_975" data-name="Path 975" class="cls-5" d="M137.521,212.681c4.191,0,7.594,2.447,7.594,5.484s-3.4,5.484-7.594,5.484-7.594-2.447-7.594-5.484S133.33,212.681,137.521,212.681Z" transform="translate(-84.116 -197.493)"/>
      <path id="Path_976" data-name="Path 976" class="cls-6" d="M126.548,47.265a8.426,8.426,0,0,1,8.437,8.437v3.375a8.437,8.437,0,1,1-16.875,0V55.7A8.426,8.426,0,0,1,126.548,47.265Z" transform="translate(-73.144 -43.89)"/>
      <path id="Path_977" data-name="Path 977" class="cls-7" d="M126.548,118.716v-5.062a.844.844,0,0,1,0-1.687V102.4H119.4a8.421,8.421,0,0,0-1.294,4.5v3.375A8.426,8.426,0,0,0,126.548,118.716Z" transform="translate(-73.144 -95.091)"/>
      <path id="Path_978" data-name="Path 978" class="cls-8" d="M284.213,2.194A4.012,4.012,0,0,1,286.519.141a5.113,5.113,0,0,1,5.372,2.194c1.1,1.688,2.391,5.119,4.275,5.766,1.462.506-3.628,1.181-6.019-.253-1.6-.956-2.419-2.9-3.6-3.066a3.571,3.571,0,0,0-1.406.169c.028.309-.984.169-1.209-.028-.928-.872-.225-1.6.281-2.728Z" transform="translate(-226.702)"/>
      <path id="Path_979" data-name="Path 979" class="cls-9" d="M273.258,47.265a1.547,1.547,0,1,1-1.547,1.547A1.561,1.561,0,0,1,273.258,47.265Z" transform="translate(-215.775 -43.89)"/>
      <path id="Path_980" data-name="Path 980" class="cls-8" d="M118.111,54.577a6.634,6.634,0,0,0,4.584-2.166c.844.844,1.294,2.137,3.853,2.137.534,0,3.853-1.294,4.669-1.294a6.594,6.594,0,0,1,3.769,1.209,8.534,8.534,0,0,0-16.875.113Zm12.516,2.813a.984.984,0,1,0,.984.984A1,1,0,0,0,130.627,57.389Zm-8.156,0a.984.984,0,1,0,.984.984A1,1,0,0,0,122.47,57.389Zm8.156,0a.984.984,0,1,0,.984.984A1,1,0,0,0,130.627,57.389Zm-8.156,0a.984.984,0,1,0,.984.984A1,1,0,0,0,122.47,57.389Z" transform="translate(-73.144 -43.889)"/>
    </g>
  </g>
</svg>
