<svg xmlns="http://www.w3.org/2000/svg" viewBox="0 0 48 48">
  <defs>
    <style>
      .cls-1 {
        fill: #f05540;
      }

      .cls-2 {
        fill: #f3705a;
      }

      .cls-3 {
        fill: #ffd15c;
      }

      .cls-4 {
        fill: #f7b64c;
      }

      .cls-5 {
        fill: #415a6b;
      }

      .cls-6 {
        fill: #344a5e;
      }

      .cls-7 {
        fill: #8ad7f8;
      }

      .cls-8 {
        fill: none;
      }
    </style>
  </defs>
  <g id="home" transform="translate(-1277 -533)">
    <g id="house" transform="translate(1285 541)">
      <rect id="Rectangle_376" data-name="Rectangle 376" class="cls-1" width="3.667" height="6.4" transform="translate(23.933 4.6)"/>
      <rect id="Rectangle_377" data-name="Rectangle 377" class="cls-2" width="6.467" height="3.467" transform="translate(22.533 1.333)"/>
      <path id="Path_831" data-name="Path 831" class="cls-3" d="M44.8,80.267V95H70.933V80.267L57.867,67.2h0C52.8,72.333,49.933,75.2,44.8,80.267Z" transform="translate(-42 -63)"/>
      <path id="Path_832" data-name="Path 832" class="cls-4" d="M71,80.267,57.933,67.2c-2.6,2.533-4.6,4.533-6.6,6.533L44.8,80.267v3L57.867,70.2,70.933,83.267v.4h0v-3.4H71Z" transform="translate(-42 -63)"/>
      <path id="Path_833" data-name="Path 833" class="cls-5" d="M98.534,337H90.667v-7.733a3.941,3.941,0,0,1,3.933-3.933h0a3.941,3.941,0,0,1,3.933,3.933Z" transform="translate(-85 -305.001)"/>
      <rect id="Rectangle_378" data-name="Rectangle 378" class="cls-6" width="10.267" height="9" transform="translate(15.867 20.333)"/>
      <g id="Group_779" data-name="Group 779" transform="translate(16.933 21.4)">
        <rect id="Rectangle_379" data-name="Rectangle 379" class="cls-7" width="3.533" height="6.867"/>
        <rect id="Rectangle_380" data-name="Rectangle 380" class="cls-7" width="3.533" height="6.867" transform="translate(4.6)"/>
      </g>
      <path id="Path_834" data-name="Path 834" class="cls-2" d="M31.4,14.533,17.467.6a2.175,2.175,0,0,0-3,0L.6,14.533a2.175,2.175,0,0,0,0,3,2.175,2.175,0,0,0,3,0L16,5.133l12.4,12.4a2.121,2.121,0,1,0,3-3Z" transform="translate(0 0)"/>
    </g>
    <rect id="Rectangle_313" data-name="Rectangle 313" class="cls-8" width="48" height="48" transform="translate(1277 533)"/>
  </g>
</svg>
